<svg width="30" height="26" viewBox="0 0 30 26" fill="none" xmlns="http://www.w3.org/2000/svg">
<path fill-rule="evenodd" clip-rule="evenodd" d="M21.5484 0C26.1308 0 29.5862 3.62267 29.5862 8.42667V17.584C29.5862 20.0427 28.689 22.264 27.0583 23.84C25.5955 25.252 23.6979 26 21.5704 26H8.01167C5.88834 26 3.99207 25.2533 2.5279 23.84C0.897219 22.264 0 20.0427 0 17.584V8.42667C0 3.62267 3.45539 0 8.03782 0H21.5484ZM21.5484 2H8.03782C4.57692 2 2.06415 4.70267 2.06415 8.42667V17.584C2.06415 19.508 2.7467 21.2267 3.98519 22.4227C5.05305 23.456 6.44704 24 8.0158 24H21.5484C21.5511 23.9973 21.5622 24 21.5704 24C23.1405 24 24.5332 23.456 25.601 22.4227C26.8409 21.2267 27.5221 19.508 27.5221 17.584V8.42667C27.5221 4.70267 25.0093 2 21.5484 2ZM23.7171 8.17173C24.0763 8.59973 24.0089 9.22907 23.5671 9.5784L17.4517 14.3944C16.6784 14.9891 15.7536 15.2864 14.8303 15.2864C13.9096 15.2864 12.9918 14.9917 12.2239 14.4024L6.0521 9.58107C5.60762 9.2344 5.53881 8.60373 5.89522 8.1744C6.25439 7.7464 6.90391 7.6784 7.34701 8.02373L13.5133 12.8397C14.2881 13.4344 15.3793 13.4344 16.1596 12.8344L22.264 8.0264C22.7071 7.67573 23.3566 7.7424 23.7171 8.17173Z" fill="white"/>
</svg>
