<svg width="22" height="27" viewBox="0 0 22 27" fill="none" xmlns="http://www.w3.org/2000/svg">
<path fill-rule="evenodd" clip-rule="evenodd" d="M21.12 21.5912C21.12 25.9859 15.0933 26.4939 10.5613 26.4939L10.237 26.4936C7.34961 26.4866 0 26.3043 0 21.5645C0 17.2596 5.78447 16.6842 10.282 16.6625L10.8856 16.6621C13.7729 16.6692 21.12 16.8515 21.12 21.5912ZM10.5613 18.6619C4.88 18.6619 2 19.6379 2 21.5645C2 23.5085 4.88 24.4939 10.5613 24.4939C16.2413 24.4939 19.12 23.5179 19.12 21.5912C19.12 19.6472 16.2413 18.6619 10.5613 18.6619ZM10.5613 0C14.4653 0 17.64 3.176 17.64 7.08C17.64 10.984 14.4653 14.1587 10.5613 14.1587H10.5187C6.62267 14.1467 3.46667 10.9693 3.47996 7.076C3.47996 3.176 6.656 0 10.5613 0ZM10.5613 1.904C7.70667 1.904 5.38397 4.22533 5.38397 7.08C5.37467 9.92533 7.68 12.2453 10.5227 12.256L10.5613 13.208V12.256C13.4147 12.256 15.736 9.93333 15.736 7.08C15.736 4.22533 13.4147 1.904 10.5613 1.904Z" fill="white"/>
</svg>
