<svg width="70" height="70" viewBox="0 0 70 70" fill="none" xmlns="http://www.w3.org/2000/svg">
<g clip-path="url(#clip0_279_212)">
<path d="M14.4921 49.4922H6.28905C5.15648 49.4922 4.23828 50.4104 4.23828 51.543V66.5819C4.23828 67.7145 5.15648 68.6327 6.28905 68.6327H14.4921C15.6247 68.6327 16.5429 67.7145 16.5429 66.5819V51.543C16.5429 50.4104 15.6247 49.4922 14.4921 49.4922Z" fill="#6835D5"/>
<path d="M30.8984 44.5703H22.6953C21.5627 44.5703 20.6445 45.4885 20.6445 46.6211V66.5819C20.6445 67.7144 21.5627 68.6326 22.6953 68.6326H30.8984C32.0309 68.6326 32.9491 67.7144 32.9491 66.5819V46.6211C32.9491 45.4885 32.0309 44.5703 30.8984 44.5703Z" fill="#6835D5"/>
<path d="M47.3046 37.0508H39.1015C37.969 37.0508 37.0508 37.969 37.0508 39.1015V66.5818C37.0508 67.7144 37.969 68.6326 39.1015 68.6326H47.3046C48.4372 68.6326 49.3554 67.7144 49.3554 66.5818V39.1015C49.3554 37.969 48.4372 37.0508 47.3046 37.0508Z" fill="#5A1FD6"/>
<path d="M63.7109 23.3789H55.5078C54.3752 23.3789 53.457 24.2971 53.457 25.4297V66.5817C53.457 67.7143 54.3752 68.6325 55.5078 68.6325H63.7109C64.8434 68.6325 65.7616 67.7143 65.7616 66.5817V25.4297C65.7616 24.2971 64.8434 23.3789 63.7109 23.3789Z" fill="#5A1FD6"/>
<path d="M69.9296 14.0539L66.5714 1.52099C66.4306 0.995588 66.0869 0.547701 65.6159 0.27577C65.1449 0.00370136 64.5846 -0.0698528 64.0598 0.0708297L51.5268 3.42903C50.4327 3.72215 49.7836 4.84665 50.0767 5.94067C50.3699 7.03468 51.4947 7.68409 52.5883 7.39069L60.6622 5.22727C55.9695 13.3821 48.2138 21.4138 38.8437 27.7191C27.1097 35.6154 14.043 39.9641 2.05077 39.9641C0.918196 39.9641 0 40.8823 0 42.0149C0 43.1474 0.918196 44.0656 2.05077 44.0656C14.85 44.0656 28.73 39.4689 41.1337 31.1221C50.8483 24.585 58.9461 16.2339 63.9762 7.68259L65.9678 15.1155C66.2133 16.0318 67.0418 16.6361 67.9473 16.6361C68.123 16.6361 68.3017 16.6133 68.4794 16.5657C69.5734 16.2724 70.2227 15.1479 69.9296 14.0539Z" fill="#3FE0D0"/>
<path d="M69.93 14.0534L66.5718 1.52051C66.431 0.9951 66.0873 0.547213 65.6163 0.275281C65.1453 0.00321308 64.585 -0.0703411 64.0602 0.0703414L51.5273 3.42854C50.4331 3.72166 49.784 4.84616 50.0771 5.94018C50.3704 7.03419 51.4951 7.6836 52.5887 7.39021L60.6626 5.22679C55.9699 13.3816 48.2142 21.4133 38.8441 27.7186C37.5775 28.5709 36.2946 29.3793 35 30.148V34.8774C37.0761 33.7257 39.1246 32.4737 41.134 31.1215C50.8486 24.5844 58.9464 16.2332 63.9765 7.68196L65.9681 15.1149C66.2136 16.0312 67.0421 16.6355 67.9476 16.6355C68.1233 16.6355 68.302 16.6126 68.4797 16.5651C69.5739 16.2719 70.2231 15.1474 69.93 14.0534Z" fill="#38C6B8"/>
<path d="M67.9487 70H2.05077C0.918196 70 0 69.0818 0 67.9492C0 66.8166 0.918196 65.8984 2.05077 65.8984H67.9487C69.0813 65.8984 69.9995 66.8166 69.9995 67.9492C69.9995 69.0818 69.0813 70 67.9487 70Z" fill="#E0FFFC"/>
<path d="M67.949 65.8984H35V70H67.949C69.0815 70 69.9997 69.0818 69.9997 67.9492C69.9997 66.8166 69.0815 65.8984 67.949 65.8984Z" fill="#BEF3EE"/>
</g>
<defs>
<clipPath id="clip0_279_212">
<rect width="70" height="70" fill="white"/>
</clipPath>
</defs>
</svg>
