<svg width="68" height="70" viewBox="0 0 68 70" fill="none" xmlns="http://www.w3.org/2000/svg">
<path d="M49.2661 8.92571V6.99028C49.2661 5.30159 47.8967 3.93227 46.208 3.93227C44.5194 3.93227 43.15 5.30159 43.15 6.99028V3.9328C43.15 2.24358 41.7812 0.874787 40.0925 0.874787C38.4033 0.874787 37.0345 2.24358 37.0345 3.9328V3.05802C37.0345 1.36879 35.6652 0 33.9765 0C32.2878 0 30.919 1.36879 30.919 3.05802V4.16138C30.919 2.47269 29.5497 1.1039 27.861 1.1039C26.1723 1.1039 24.803 2.47269 24.803 4.16138V11.8924H21.7455C20.0563 11.8924 18.6875 13.2612 18.6875 14.9504V19.429C18.6875 23.2614 20.0974 26.7643 22.4275 29.448C23.3354 30.4936 23.8129 31.8459 23.8129 33.2318V35.3562C23.8753 35.3477 23.9384 35.3418 24.0035 35.3418H43.9495C44.0141 35.3418 44.0772 35.3477 44.1396 35.3562V33.2318C44.1396 31.8459 44.6176 30.4936 45.5255 29.448C47.8551 26.7643 49.2655 23.2614 49.2655 19.429L49.2661 8.92571Z" fill="#FFCDBE"/>
<path d="M43.1507 3.93595V11.4026C43.1507 13.0913 41.7819 14.4606 40.0932 14.4606C38.4039 14.4606 37.0352 13.0918 37.0352 11.4026V3.93595C37.0352 2.24725 38.4039 0.87793 40.0932 0.87793C41.7819 0.87793 43.1507 2.24725 43.1507 3.93595Z" fill="#FFCDBE"/>
<path d="M49.2664 6.98917V13.0593C49.2664 14.748 47.8971 16.1168 46.2084 16.1168C44.5197 16.1168 43.1504 14.748 43.1504 13.0593V6.98917C43.1504 5.30048 44.5197 3.93115 46.2084 3.93115C47.8971 3.93115 49.2664 5.30048 49.2664 6.98917Z" fill="#FFCDBE"/>
<path d="M64.1893 1.94455L67.2943 5.19696C67.7141 5.63649 67.9485 6.22129 67.9485 6.82904V20.3733C67.9485 20.9816 67.7141 21.5664 67.2943 22.0059L64.1893 25.2583C63.7428 25.7256 63.1254 25.99 62.4792 25.99H53.6972C52.9992 25.99 52.4336 25.4239 52.4336 24.7264V2.47647C52.4336 1.77899 52.9992 1.21289 53.6972 1.21289H62.4792C63.1249 1.21289 63.7428 1.47725 64.1893 1.94455Z" fill="#3FE0D0"/>
<path d="M67.2943 5.19696L64.1887 1.94455C63.7428 1.47725 63.1249 1.21289 62.4792 1.21289H60.6325C61.8181 2.45458 62.4798 4.10588 62.4798 5.82288V15.4642C62.4798 17.4685 61.7075 19.3954 60.3238 20.8449C58.8535 22.3845 56.8177 23.2556 54.6884 23.2556H52.4336V24.7264C52.4336 25.4244 52.9992 25.99 53.6972 25.99H62.4792C63.1254 25.99 63.7428 25.7256 64.1893 25.2583L67.2948 22.0064C67.7146 21.5664 67.949 20.9816 67.949 20.3738V6.82958C67.9485 6.22129 67.7141 5.63649 67.2943 5.19696Z" fill="#1CC8B7"/>
<path d="M65.2232 24.1755L64.1898 25.2581C63.9879 25.4696 63.7497 25.6367 63.4912 25.759V1.44336C63.7497 1.56566 63.9879 1.73282 64.1898 1.94431L67.2948 5.19672C67.7145 5.63625 67.949 6.22104 67.949 6.8288V20.3736C67.949 20.9813 67.7151 21.5661 67.2953 22.0057L65.2232 24.1755Z" fill="#279A8F"/>
<path d="M3.75923 1.94455L0.654221 5.19696C0.234451 5.63649 0 6.22129 0 6.82958V20.3738C0 20.9816 0.234451 21.5664 0.654221 22.0059L3.75977 25.2583C4.20571 25.7256 4.82361 25.99 5.46929 25.99H14.2519C14.9493 25.99 15.5155 25.4244 15.5155 24.7264V2.47647C15.5155 1.77899 14.9493 1.21289 14.2519 1.21289H5.46929C4.82361 1.21289 4.20571 1.47725 3.75923 1.94455Z" fill="#3FE0D0"/>
<path d="M14.2507 1.21289H10.0455V15.0567C10.0455 19.5845 6.37496 23.2556 1.84668 23.2556L3.75861 25.2583C4.20508 25.7256 4.82245 25.99 5.46866 25.99H14.2507C14.9487 25.99 15.5143 25.4244 15.5143 24.7264V2.47647C15.5143 1.77899 14.9487 1.21289 14.2507 1.21289Z" fill="#1CC8B7"/>
<path d="M2.72583 24.1755L3.75977 25.2581C3.96111 25.4696 4.1993 25.6367 4.45778 25.759V1.44336C4.1993 1.56566 3.96111 1.73282 3.75977 1.94431L0.654221 5.19672C0.234451 5.63625 0 6.22104 0 6.82933V20.3736C0 20.9813 0.234451 21.5661 0.654221 22.0057L2.72583 24.1755Z" fill="#1CC8B7"/>
<path d="M4.45715 22.8281C3.63684 23.1037 2.75992 23.2554 1.84668 23.2554C3.95407 25.4626 3.79439 25.3019 3.92256 25.413C3.96208 25.4471 4.07851 25.5358 4.09186 25.5454C4.23071 25.6437 4.38986 25.7307 4.45715 25.7596V22.8281Z" fill="#279A8F"/>
<path d="M30.9084 11.8926C30.9159 11.8055 30.9207 11.7174 30.9207 11.6287V4.16153C30.9207 2.47284 29.5514 1.10352 27.8627 1.10352C26.174 1.10352 24.8047 2.47284 24.8047 4.16153V11.6287C24.8047 11.7174 24.8095 11.8055 24.817 11.8926H30.9084Z" fill="#FFCDBE"/>
<path d="M33.9774 0C32.2887 0 30.9199 1.36879 30.9199 3.05802V10.5247C30.9199 11.0165 31.0363 11.4806 31.243 11.8924H32.0842C33.2399 11.8924 34.2455 12.5333 34.7651 13.4796C36.0725 13.1319 37.0354 11.941 37.0354 10.5247V3.05802C37.0354 1.36879 35.6661 0 33.9774 0Z" fill="#FFCDBE"/>
<path d="M40.0927 0.87793C40.0313 0.87793 39.9704 0.880066 39.9096 0.883804C40.2295 1.36713 40.4158 1.94605 40.4158 2.56822V10.0354C40.4158 11.6627 39.1448 12.9925 37.541 13.0876C38.0884 13.9143 39.0262 14.4606 40.0927 14.4606C41.7814 14.4606 43.1502 13.0913 43.1502 11.4026V3.93595C43.1502 2.24725 41.7814 0.87793 40.0927 0.87793Z" fill="#FAA68E"/>
<path d="M46.208 3.93115C46.1466 3.93115 46.0857 3.93382 46.0253 3.93703C46.3447 4.42035 46.5316 4.99927 46.5316 5.62198V11.6921C46.5316 13.3194 45.26 14.6492 43.6562 14.7437C44.2037 15.5709 45.142 16.1168 46.208 16.1168C47.8967 16.1168 49.266 14.748 49.266 13.0593V6.98917C49.266 5.30048 47.8967 3.93115 46.208 3.93115Z" fill="#FAA68E"/>
<path d="M27.8612 1.104C27.7998 1.104 27.7389 1.10614 27.6785 1.10988C27.9979 1.59267 28.1848 2.17159 28.1848 2.7943C28.1848 2.7943 28.1832 5.34069 28.1806 7.51056C28.1784 9.17682 26.8273 10.5253 25.1615 10.5253H24.8037V11.6287C24.8037 11.7173 24.8085 11.8055 24.8155 11.8925H30.9069C30.9144 11.8055 30.9192 11.7173 30.9192 11.6287V4.16149C30.9192 2.47279 29.5499 1.104 27.8612 1.104Z" fill="#FAA68E"/>
<path d="M33.9769 0C33.9155 0 33.8552 0.00213623 33.7943 0.00587464C34.1142 0.489197 34.3006 1.06812 34.3006 1.69083V9.15749C34.3006 10.3832 33.5785 11.439 32.5371 11.9266C33.4989 12.0697 34.3145 12.6598 34.7647 13.4796C36.072 13.1319 37.0349 11.941 37.0349 10.5247V3.05802C37.0349 1.36879 35.6656 0 33.9769 0Z" fill="#FAA68E"/>
<path d="M51.4307 9.05769C50.7097 9.0107 49.9882 8.9669 49.2672 8.92578V13.0594C49.2672 14.7481 47.8979 16.1169 46.2092 16.1169C44.5205 16.1169 43.1512 14.7481 43.1512 13.0594V11.4027C43.1512 13.0914 41.7824 14.4608 40.0937 14.4608C38.4045 14.4608 37.0357 13.0914 37.0357 11.4027V10.5248C37.0357 11.9411 36.0723 13.132 34.7654 13.4797V13.4792C35.0052 13.9155 35.1419 14.417 35.1419 14.95C35.1419 16.6386 33.7731 18.008 32.0844 18.008H25.2773C26.0779 18.008 26.8245 18.2376 27.4563 18.6328C35.4495 18.8267 43.4487 18.6643 51.4307 18.1452L52.4342 18.0795V9.12338L51.4307 9.05769Z" fill="#BADFE4"/>
<path d="M51.4307 9.05769C50.7097 9.0107 49.9882 8.9669 49.2672 8.92578V13.0594C49.2672 14.7481 47.8979 16.1169 46.2092 16.1169C45.5229 16.1169 44.889 15.891 44.379 15.5091C41.2515 15.6939 38.122 15.8231 34.9913 15.899C34.5924 17.123 33.442 18.008 32.0844 18.008H25.2773C26.0779 18.008 26.8245 18.2376 27.4568 18.6334C35.4495 18.8267 43.4487 18.6643 51.4307 18.1452L52.4347 18.0801V9.12338L51.4307 9.05769Z" fill="#95CED6"/>
<path d="M24.805 8.64844C22.0418 8.74243 19.2797 8.87808 16.5197 9.05753L15.5156 9.12321V18.0799L16.5197 18.1451C17.2428 18.1921 17.9659 18.2358 18.689 18.277V14.9503C18.689 13.2611 20.0583 11.8923 21.747 11.8923H24.8168C24.8093 11.8053 24.805 11.7171 24.805 11.6285V8.64844Z" fill="#BADFE4"/>
<path d="M18.689 15.5428C17.9659 15.5017 17.2428 15.4579 16.5197 15.4109L15.5156 15.3452V18.0796L16.5197 18.1453C17.2428 18.1923 17.9659 18.2361 18.689 18.2772V15.5428Z" fill="#95CED6"/>
<path d="M43.6873 18.5349C43.3145 21.6399 42.0125 24.4587 40.0658 26.7038C39.1558 27.7543 38.6719 29.1071 38.6719 30.4973C38.6719 31.6684 37.7219 32.618 36.5501 32.6164C32.4368 32.6111 23.7803 32.6073 23.7803 32.6073C23.8016 32.814 23.8139 33.0223 23.8139 33.2311V35.3561C23.8764 35.3476 23.9394 35.3417 24.004 35.3417H43.95C44.0152 35.3417 44.0782 35.3476 44.1407 35.3561V33.2311C44.1407 31.8137 44.6646 30.4529 45.5869 29.3773C47.8807 26.7033 49.2666 23.2277 49.2666 19.4284V18.2759C47.4075 18.3816 45.5474 18.4676 43.6873 18.5349Z" fill="#FAA68E"/>
<path d="M43.9496 51.6668H24.0036C23.939 51.6668 23.876 51.6609 23.8135 51.6523L23.814 69.5983C23.814 69.8199 23.994 69.9999 24.2156 69.9999H43.7376C43.9597 69.9999 44.1397 69.8199 44.1397 69.5983V51.6523C44.0778 51.6609 44.0142 51.6668 43.9496 51.6668Z" fill="#FFCDBE"/>
<path d="M43.95 51.6668H38.6714V59.2872C38.6714 63.6932 35.0991 67.2655 30.6926 67.2655H23.8145V69.5983C23.8145 69.8199 23.9944 69.9999 24.2161 69.9999H43.738C43.9602 69.9999 44.1402 69.8199 44.1402 69.5983V51.6523C44.0782 51.6609 44.0147 51.6668 43.95 51.6668Z" fill="#FAA68E"/>
<path d="M43.9505 51.6669H24.0045C23.2392 51.6669 22.6191 51.0463 22.6191 50.2815V36.7271C22.6191 35.9618 23.2392 35.3418 24.0045 35.3418H43.9505C44.7158 35.3418 45.3358 35.9618 45.3358 36.7271V50.2815C45.3358 51.0463 44.7158 51.6669 43.9505 51.6669Z" fill="#6835D5"/>
<path d="M43.9505 35.3418H39.8671V38.6049C39.8671 44.3086 35.2432 48.9325 29.5395 48.9325H22.6191V50.2815C22.6191 51.0463 23.2392 51.6669 24.0045 51.6669H43.9505C44.7158 51.6669 45.3358 51.0463 45.3358 50.2815V36.7271C45.3358 35.9618 44.7158 35.3418 43.9505 35.3418Z" fill="#5A1FD6"/>
<path d="M22.6191 39.7368H45.3358V47.2713H22.6191V39.7368Z" fill="#E0FFFC"/>
<path d="M35.1533 47.2713H45.3357V39.7368H39.8039C39.4594 42.8952 37.6906 45.6243 35.1533 47.2713Z" fill="#BEF3EE"/>
<path d="M18.8594 13.9429H32.0843C33.2047 13.9429 34.1163 14.8545 34.1163 15.9755C34.1163 17.096 33.2047 18.0076 32.0843 18.0076H25.2771C24.711 18.0076 24.2518 18.4663 24.2518 19.033C24.2518 19.5996 24.711 20.0584 25.2771 20.0584C26.9803 20.0584 28.3656 21.4437 28.3656 23.1468C28.3656 24.8494 26.9803 26.2347 25.2771 26.2347C24.711 26.2347 24.2518 26.6935 24.2518 27.2601C24.2518 27.8268 24.711 28.2855 25.2771 28.2855C28.1109 28.2855 30.4164 25.98 30.4164 23.1468C30.4164 21.9885 30.0313 20.9187 29.3825 20.0584H32.0843C34.3358 20.0584 36.1671 18.2266 36.1671 15.9755C36.1671 13.7239 34.3358 11.8921 32.0843 11.8921H21.7465C20.4103 11.8921 19.2754 12.7487 18.8594 13.9429Z" fill="#FAA68E"/>
</svg>
