<svg width="52" height="70" viewBox="0 0 52 70" fill="none" xmlns="http://www.w3.org/2000/svg">
<path d="M4.54836 70.0002H47.4516C49.9458 70.0002 51.9677 67.9783 51.9677 65.4841V11.2905C51.9677 8.79637 49.9458 6.77441 47.4516 6.77441H4.54836C2.05418 6.77441 0.0322266 8.79637 0.0322266 11.2905V65.4841C0.0322266 67.9783 2.05418 70.0002 4.54836 70.0002Z" fill="#38C6B8"/>
<path d="M4.54836 70.0002H45.1935C47.6877 70.0002 49.7096 67.9783 49.7096 65.4841V11.2905C49.7096 8.79637 47.6877 6.77441 45.1935 6.77441H4.54836C2.05418 6.77441 0.0322266 8.79637 0.0322266 11.2905V65.4841C0.0322266 67.9783 2.05418 70.0002 4.54836 70.0002Z" fill="#3FE0D0"/>
<path d="M5.67701 66.6128H44.0641C45.3113 66.6128 46.3222 65.6019 46.3222 64.3548V12.7957C46.3222 11.5485 45.3113 10.5376 44.0641 10.5376H5.67701C4.42985 10.5376 3.41895 11.5485 3.41895 12.7957V64.3548C3.41895 65.6019 4.42985 66.6128 5.67701 66.6128Z" fill="#E0FFFC"/>
<path d="M26.4619 66.6128H5.61991C4.40489 66.6128 3.41991 65.6278 3.41991 64.4128V12.7376C3.41991 11.5226 4.40489 10.5376 5.61991 10.5376H6.66373C6.66373 30.705 10.0719 60.2183 26.4619 66.6128Z" fill="#BEF3EE"/>
<path d="M33.9036 4.51613H29.3875C29.3875 2.02196 27.3656 0 24.8714 0C22.3772 0 20.3552 2.02196 20.3552 4.51613H15.8391C14.5921 4.51613 13.5811 5.52718 13.5811 6.77419V11.2903C13.5811 12.5373 14.5921 13.5484 15.8391 13.5484H33.9036C35.1507 13.5484 36.1617 12.5373 36.1617 11.2903V6.77419C36.1617 5.52718 35.1507 4.51613 33.9036 4.51613ZM24.8714 6.77419C23.6242 6.77419 22.6133 5.76329 22.6133 4.51613C22.6133 3.26897 23.6242 2.25806 24.8714 2.25806C26.1185 2.25806 27.1294 3.26911 27.1294 4.51613C27.1294 5.76314 26.1185 6.77419 24.8714 6.77419Z" fill="#6835D5"/>
<path d="M13.5805 36.129H11.3224C10.6989 36.129 10.1934 35.6234 10.1934 34.9999V19.1935C10.1934 18.57 10.6989 18.0645 11.3224 18.0645H13.5805C14.204 18.0645 14.7095 18.57 14.7095 19.1935V34.9999C14.7095 35.6234 14.204 36.129 13.5805 36.129Z" fill="#5A1FD6"/>
<path d="M9.06385 33.8711H6.80579C6.18228 33.8711 5.67676 33.3656 5.67676 32.7421V21.4518C5.67676 20.8283 6.18228 20.3228 6.80579 20.3228H9.06385C9.68736 20.3228 10.1929 20.8283 10.1929 21.4518V32.7421C10.1929 33.3656 9.68736 33.8711 9.06385 33.8711Z" fill="#5A1FD6"/>
<path d="M36.1603 36.129H38.4183C39.0419 36.129 39.5474 35.6234 39.5474 34.9999V19.1935C39.5474 18.57 39.0419 18.0645 38.4183 18.0645H36.1603C35.5368 18.0645 35.0312 18.57 35.0312 19.1935V34.9999C35.0312 35.6234 35.5368 36.129 36.1603 36.129Z" fill="#5A1FD6"/>
<path d="M40.6769 33.8711H42.9349C43.5585 33.8711 44.064 33.3656 44.064 32.7421V21.4518C44.064 20.8283 43.5585 20.3228 42.9349 20.3228H40.6769C40.0534 20.3228 39.5479 20.8283 39.5479 21.4518V32.7421C39.5479 33.3656 40.0534 33.8711 40.6769 33.8711Z" fill="#5A1FD6"/>
<path d="M14.709 24.8389H35.0316V29.355H14.709V24.8389Z" fill="#5A1FD6"/>
<path d="M14.7095 27.0967H10.1934V19.1935C10.1934 18.57 10.6989 18.0645 11.3224 18.0645H13.5805C14.204 18.0645 14.7095 18.57 14.7095 19.1935V27.0967Z" fill="#6835D5"/>
<path d="M10.1929 27.0969H5.67676V21.4518C5.67676 20.8283 6.18228 20.3228 6.80579 20.3228H9.06385C9.68736 20.3228 10.1929 20.8283 10.1929 21.4518V27.0969Z" fill="#6835D5"/>
<path d="M35.0312 27.0967H39.5474V19.1935C39.5474 18.57 39.0419 18.0645 38.4183 18.0645H36.1603C35.5368 18.0645 35.0312 18.57 35.0312 19.1935V27.0967Z" fill="#6835D5"/>
<path d="M41.0527 27.0969H44.0634V21.4518C44.0634 20.8283 43.5579 20.3228 42.9344 20.3228H41.0527V27.0969Z" fill="#6835D5"/>
<path d="M16.2148 24.8389H35.032V27.0969H16.2148V24.8389Z" fill="#6835D5"/>
<path d="M31.6453 47.4194H9.06471C7.81755 47.4194 6.80664 46.4085 6.80664 45.1614C6.80664 43.9142 7.81755 42.9033 9.06471 42.9033H31.6453C32.8925 42.9033 33.9034 43.9142 33.9034 45.1614C33.9034 46.4085 32.8925 47.4194 31.6453 47.4194Z" fill="#3FE0D0"/>
<path d="M31.6453 58.7095H9.06471C7.81755 58.7095 6.80664 57.6986 6.80664 56.4514C6.80664 55.2043 7.81755 54.1934 9.06471 54.1934H31.6453C32.8925 54.1934 33.9034 55.2043 33.9034 56.4514C33.9034 57.6986 32.8925 58.7095 31.6453 58.7095Z" fill="#3FE0D0"/>
<path d="M39.5482 48.5486C41.4189 48.5486 42.9353 47.0322 42.9353 45.1615C42.9353 43.2909 41.4189 41.7744 39.5482 41.7744C37.6776 41.7744 36.1611 43.2909 36.1611 45.1615C36.1611 47.0322 37.6776 48.5486 39.5482 48.5486Z" fill="#3FE0D0"/>
<path d="M39.5482 59.8386C41.4189 59.8386 42.9353 58.3222 42.9353 56.4516C42.9353 54.5809 41.4189 53.0645 39.5482 53.0645C37.6776 53.0645 36.1611 54.5809 36.1611 56.4516C36.1611 58.3222 37.6776 59.8386 39.5482 59.8386Z" fill="#3FE0D0"/>
</svg>
