<svg width="40" height="35" viewBox="0 0 40 35" fill="none" xmlns="http://www.w3.org/2000/svg">
<path d="M28.9803 28.6836C28.9803 28.6836 27.5841 27.3559 27.9257 27.0505C52.0626 6.3112 34.4464 -7.3955 20.6376 4.5276C40.3135 -4.15582 35.2287 14.8486 22.7468 22.8504C22.3309 23.1159 20.9 22.1556 20.9 22.1556L18.4492 30.9275L28.9803 28.6836Z" fill="#3FE0D0"/>
<path d="M24.8106 9.60847C24.8106 9.60847 23.5975 10.5512 23.3648 10.2192C4.86239 -16.1762 -16.3632 14.645 19.3296 34.2203C3.15424 20.7703 1.75307 -2.9785 20.0079 12.7419C20.2704 12.9676 19.0177 14.2113 19.0177 14.2113L26.3751 15.539L24.8106 9.60847Z" fill="#3FE0D0"/>
</svg>
