<svg width="270" height="65" viewBox="0 0 270 65" fill="none" xmlns="http://www.w3.org/2000/svg">
<g filter="url(#filter0_d_272_1152)">
<path d="M43.9803 43.6836C43.9803 43.6836 42.5841 42.3559 42.9257 42.0505C67.0626 21.3112 49.4464 7.6045 35.6376 19.5276C55.3135 10.8442 50.2287 29.8486 37.7468 37.8504C37.3309 38.1159 35.9 37.1556 35.9 37.1556L33.4492 45.9275L43.9803 43.6836Z" fill="white"/>
<path d="M39.8106 24.6085C39.8106 24.6085 38.5975 25.5512 38.3648 25.2192C19.8624 -1.17622 -1.36317 29.645 34.3296 49.2203C18.1542 35.7703 16.7531 12.0215 35.0079 27.7419C35.2704 27.9676 34.0177 29.2113 34.0177 29.2113L41.3751 30.539L39.8106 24.6085Z" fill="white"/>
<path d="M70.8818 24.7178L75.9914 34.6802L81.0763 24.7178H85.8987L78.3135 38.5528H73.5802L66 24.7178H70.8818Z" fill="white"/>
<path d="M104.673 35.4724V38.5705H88.1514V24.7178H104.431V27.8158H92.5975V30.0863H102.351V33.0338H92.5975V35.4857L104.673 35.4724Z" fill="white"/>
<path d="M126.256 24.7178V38.5528H122.295L112.303 29.4622V38.5528H107.946V24.7178H112.724L121.899 33.1755V24.7178H126.256Z" fill="white"/>
<path d="M146.313 27.9398H139.876V38.5617H135.366V27.9398H128.974V24.7178H146.303L146.313 27.9398Z" fill="white"/>
<path d="M162.146 38.5528L158.056 34.1845H153.501V38.5528H149.011V24.7178H159.869C163.83 24.7178 166.899 26.2801 166.899 29.4401C166.899 31.7548 165.265 33.2153 162.829 33.8659L167.389 38.5705L162.146 38.5528ZM159.537 31.2591C161.151 31.2591 162.324 30.8652 162.324 29.5198C162.324 28.1743 161.151 27.7804 159.537 27.7804H153.477V31.2591H159.537Z" fill="white"/>
<path d="M192.818 33.6135L196.685 35.3838C195.249 37.4197 192.13 38.9997 187.951 38.9997C182.114 38.9997 178.178 36.2911 178.178 31.6263C178.178 26.9615 182.114 24.2529 188.13 24.2529C192.13 24.2529 195.229 25.8728 196.621 27.8511L192.729 29.6214C191.709 28.1963 190.14 27.5236 188.06 27.5236C184.877 27.5236 182.753 28.9664 182.753 31.6175C182.753 34.2685 184.877 35.7113 188.06 35.7113C190.14 35.729 191.759 35.0961 192.818 33.6135Z" fill="white"/>
<path d="M212.609 38.5528L207.41 32.6045L203.984 35.3308V38.5528H199.474V24.7178H203.984V31.1219L211.906 24.7178H217.506L210.629 30.2323L217.902 38.5528H212.609Z" fill="white"/>
<path d="M235.008 35.3131V38.5528H220.085V24.7178H224.595V35.3131H235.008Z" fill="white"/>
<path d="M254.272 35.4724V38.5705H237.75V24.7178H254.029V27.8158H242.196V30.0863H251.95V33.0338H242.196V35.4857L254.272 35.4724Z" fill="white"/>
<path d="M170.35 24.7178V27.3157V29.1878V29.8827V32.994V33.6889V36.4151V38.5572H174.86V36.4151V33.6889V32.994V29.8827V29.1878V27.3157V24.7178H170.35Z" fill="white"/>
</g>
<defs>
<filter id="filter0_d_272_1152" x="0" y="0" width="269.271" height="64.2207" filterUnits="userSpaceOnUse" color-interpolation-filters="sRGB">
<feFlood flood-opacity="0" result="BackgroundImageFix"/>
<feColorMatrix in="SourceAlpha" type="matrix" values="0 0 0 0 0 0 0 0 0 0 0 0 0 0 0 0 0 0 127 0" result="hardAlpha"/>
<feOffset/>
<feGaussianBlur stdDeviation="7.5"/>
<feComposite in2="hardAlpha" operator="out"/>
<feColorMatrix type="matrix" values="0 0 0 0 1 0 0 0 0 1 0 0 0 0 1 0 0 0 0.3 0"/>
<feBlend mode="normal" in2="BackgroundImageFix" result="effect1_dropShadow_272_1152"/>
<feBlend mode="normal" in="SourceGraphic" in2="effect1_dropShadow_272_1152" result="shape"/>
</filter>
</defs>
</svg>
